<svg width="24" height="25" viewBox="0 0 24 25" fill="none" xmlns="http://www.w3.org/2000/svg">
<path d="M12 16.1C14.2091 16.1 16 14.3091 16 12.1C16 9.89084 14.2091 8.09998 12 8.09998C9.79086 8.09998 8 9.89084 8 12.1C8 14.3091 9.79086 16.1 12 16.1Z" stroke="white" stroke-width="2" stroke-linecap="round" stroke-linejoin="round"/>
<path d="M16 8.09997V13.1C16 13.8956 16.3161 14.6587 16.8787 15.2213C17.4413 15.7839 18.2044 16.1 19 16.1C19.7957 16.1 20.5587 15.7839 21.1213 15.2213C21.6839 14.6587 22 13.8956 22 13.1V12.1C21.9999 9.84299 21.2362 7.65244 19.8333 5.8845C18.4303 4.11655 16.4706 2.87519 14.2726 2.36226C12.0747 1.84934 9.76794 2.09501 7.72736 3.05933C5.68677 4.02366 4.03241 5.64992 3.03327 7.67369C2.03413 9.69746 1.74898 11.9997 2.22418 14.2061C2.69938 16.4125 3.90699 18.3932 5.65064 19.8262C7.39429 21.2593 9.57144 22.0603 11.8281 22.0991C14.0847 22.1379 16.2881 21.4122 18.08 20.04" stroke="white" stroke-width="2" stroke-linecap="round" stroke-linejoin="round"/>
</svg>
