<svg width="24" height="25" viewBox="0 0 24 25" fill="none" xmlns="http://www.w3.org/2000/svg">
<path d="M17 2.09998H7C4.23858 2.09998 2 4.33855 2 7.09998V17.1C2 19.8614 4.23858 22.1 7 22.1H17C19.7614 22.1 22 19.8614 22 17.1V7.09998C22 4.33855 19.7614 2.09998 17 2.09998Z" stroke="white" stroke-width="2" stroke-linecap="round" stroke-linejoin="round"/>
<path d="M16 11.47C16.1234 12.3023 15.9812 13.1522 15.5937 13.899C15.2062 14.6458 14.5931 15.2514 13.8416 15.6297C13.0901 16.008 12.2384 16.1396 11.4077 16.006C10.5771 15.8723 9.80971 15.4801 9.21479 14.8852C8.61987 14.2903 8.22768 13.5229 8.09402 12.6922C7.96035 11.8616 8.09202 11.0099 8.47028 10.2584C8.84854 9.50689 9.45414 8.89377 10.2009 8.50627C10.9477 8.11878 11.7977 7.97662 12.63 8.10003C13.4789 8.22592 14.2648 8.6215 14.8716 9.22834C15.4785 9.83518 15.8741 10.6211 16 11.47Z" stroke="white" stroke-width="2" stroke-linecap="round" stroke-linejoin="round"/>
<path d="M17.5 6.59998H17.51" stroke="white" stroke-width="2" stroke-linecap="round" stroke-linejoin="round"/>
</svg>
