<svg width="24" height="25" viewBox="0 0 24 25" fill="none" xmlns="http://www.w3.org/2000/svg">
<path d="M21.9999 17.02V20.02C22.0011 20.2985 21.944 20.5741 21.8324 20.8293C21.7209 21.0845 21.5572 21.3135 21.352 21.5018C21.1468 21.6901 20.9045 21.8334 20.6407 21.9227C20.3769 22.0119 20.0973 22.045 19.8199 22.02C16.7428 21.6856 13.7869 20.6341 11.1899 18.95C8.77376 17.4146 6.72527 15.3661 5.18993 12.95C3.49991 10.3412 2.44818 7.37094 2.11993 4.27995C2.09494 4.00342 2.12781 3.72471 2.21643 3.46157C2.30506 3.19844 2.4475 2.95664 2.6347 2.75157C2.82189 2.5465 3.04974 2.38266 3.30372 2.27047C3.55771 2.15829 3.83227 2.10021 4.10993 2.09995H7.10993C7.59524 2.09517 8.06572 2.26703 8.43369 2.58348C8.80166 2.89994 9.04201 3.3394 9.10993 3.81995C9.23656 4.78002 9.47138 5.72268 9.80993 6.62995C9.94448 6.98787 9.9736 7.37687 9.89384 7.75083C9.81408 8.1248 9.6288 8.46806 9.35993 8.73995L8.08993 10.01C9.51349 12.5135 11.5864 14.5864 14.0899 16.01L15.3599 14.74C15.6318 14.4711 15.9751 14.2858 16.3491 14.206C16.723 14.1263 17.112 14.1554 17.4699 14.29C18.3772 14.6285 19.3199 14.8633 20.2799 14.99C20.7657 15.0585 21.2093 15.3032 21.5265 15.6774C21.8436 16.0517 22.0121 16.5295 21.9999 17.02Z" stroke="white" stroke-width="2" stroke-linecap="round" stroke-linejoin="round"/>
</svg>
