<svg width="25" height="26" viewBox="0 0 25 26" fill="none" xmlns="http://www.w3.org/2000/svg">
<path d="M24.5 13C24.5 13.0818 24.4411 13.1506 24.3592 13.1604C15.1252 14.5319 14.0319 15.6285 12.6604 24.8592C12.6473 24.9378 12.5786 25 12.5 25C12.4214 25 12.3494 24.9411 12.3396 24.8592C10.9681 15.6252 9.87152 14.5319 0.640753 13.1604C0.562193 13.1473 0.5 13.0786 0.5 13C0.5 12.9214 0.55892 12.8494 0.640753 12.8396C9.8748 11.4681 10.9681 10.3715 12.3396 1.14075C12.3527 1.06219 12.4214 1 12.5 1C12.5786 1 12.6506 1.05892 12.6604 1.14075C14.0319 10.3748 15.1285 11.4681 24.3592 12.8396C24.4378 12.8527 24.5 12.9214 24.5 13Z" fill="#F63A50" stroke="#F63A50"/>
</svg>
